<svg width="584" height="254" viewBox="0 0 584 254" fill="none" xmlns="http://www.w3.org/2000/svg">
<circle cx="149.478" cy="154.365" r="25" transform="rotate(-14.1892 149.478 154.365)" fill="#2E5263"/>
<circle cx="149.478" cy="92.3654" r="25" transform="rotate(-14.1892 149.478 92.3654)" fill="#2E5263"/>
<circle cx="149.478" cy="30.3654" r="25" transform="rotate(-14.1892 149.478 30.3654)" fill="#2E5263"/>
<g style="mix-blend-mode:multiply">
<path d="M238.119 214.727C238.119 219.742 237.18 224.038 235.301 227.614C233.438 231.174 230.892 233.902 227.665 235.795C224.453 237.689 220.809 238.636 216.733 238.636C212.657 238.636 209.006 237.689 205.778 235.795C202.566 233.886 200.021 231.152 198.142 227.591C196.278 224.015 195.347 219.727 195.347 214.727C195.347 209.712 196.278 205.424 198.142 201.864C200.021 198.288 202.566 195.553 205.778 193.659C209.006 191.765 212.657 190.818 216.733 190.818C220.809 190.818 224.453 191.765 227.665 193.659C230.892 195.553 233.438 198.288 235.301 201.864C237.18 205.424 238.119 209.712 238.119 214.727ZM229.642 214.727C229.642 211.197 229.089 208.22 227.983 205.795C226.892 203.356 225.377 201.515 223.438 200.273C221.498 199.015 219.263 198.386 216.733 198.386C214.203 198.386 211.968 199.015 210.028 200.273C208.089 201.515 206.566 203.356 205.46 205.795C204.369 208.22 203.824 211.197 203.824 214.727C203.824 218.258 204.369 221.242 205.46 223.682C206.566 226.106 208.089 227.947 210.028 229.205C211.968 230.447 214.203 231.068 216.733 231.068C219.263 231.068 221.498 230.447 223.438 229.205C225.377 227.947 226.892 226.106 227.983 223.682C229.089 221.242 229.642 218.258 229.642 214.727ZM284.341 191.455V238H276.841L254.909 206.295H254.523V238H246.091V191.455H253.636L275.545 223.182H275.955V191.455H284.341ZM293.528 238V191.455H301.96V230.932H322.46V238H293.528ZM338.21 191.455V238H329.778V191.455H338.21ZM385.591 191.455V238H378.091L356.159 206.295H355.773V238H347.341V191.455H354.886L376.795 223.182H377.205V191.455H385.591ZM394.778 238V191.455H425.051V198.523H403.21V211.159H423.483V218.227H403.21V230.932H425.233V238H394.778Z" fill="#2E5263"/>
</g>
<circle cx="149.478" cy="216.365" r="25" transform="rotate(-14.1892 149.478 216.365)" fill="#2E5263"/>
<line x1="23.1049" y1="178.493" x2="570.12" y2="178.493" stroke="#A1563C" stroke-width="3"/>
<g style="mix-blend-mode:multiply">
<path d="M84.4625 85.2C84.1958 88.8667 83.9958 92.4 83.8625 95.8C83.7958 99.2 83.7625 101.8 83.7625 103.6C83.7625 105.067 83.7958 106.433 83.8625 107.7C83.9292 108.967 83.9958 110.067 84.0625 111H81.7625C80.4292 105.067 78.8292 100.4 76.9625 97C75.0958 93.5333 72.9625 91.1 70.5625 89.7C68.2292 88.2333 65.6958 87.5 62.9625 87.5H61.7625V144.6C61.7625 147.333 62.0292 149.367 62.5625 150.7C63.1625 152.033 64.2292 152.933 65.7625 153.4C67.3625 153.8 69.6625 154 72.6625 154V156C70.4625 155.933 67.4958 155.867 63.7625 155.8C60.0958 155.733 56.2625 155.7 52.2625 155.7C48.3292 155.7 44.6292 155.733 41.1625 155.8C37.6958 155.867 34.8958 155.933 32.7625 156V154C35.7625 154 38.0625 153.8 39.6625 153.4C41.2625 152.933 42.3292 152.033 42.8625 150.7C43.3958 149.367 43.6625 147.333 43.6625 144.6V87.5H42.5625C39.7625 87.5 37.1958 88.2333 34.8625 89.7C32.5292 91.1 30.4292 93.5 28.5625 96.9C26.6958 100.3 25.0625 105 23.6625 111H21.3625C21.4958 110.067 21.5625 108.967 21.5625 107.7C21.6292 106.433 21.6625 105.067 21.6625 103.6C21.6625 101.8 21.5958 99.2 21.4625 95.8C21.3958 92.4 21.2292 88.8667 20.9625 85.2C24.0958 85.2667 27.5292 85.3333 31.2625 85.4C35.0625 85.4667 38.8292 85.5 42.5625 85.5C46.2958 85.5 49.6958 85.5 52.7625 85.5C55.8292 85.5 59.2292 85.5 62.9625 85.5C66.7625 85.5 70.5292 85.4667 74.2625 85.4C77.9958 85.3333 81.3958 85.2667 84.4625 85.2ZM184.424 85.2V87.2C182.358 87.5333 180.791 88.1667 179.724 89.1C178.658 90.0333 177.958 91.4667 177.624 93.4C177.291 95.3333 177.124 98.0667 177.124 101.6V126.9C177.124 131.167 176.824 135.1 176.224 138.7C175.691 142.3 174.624 145.433 173.024 148.1C171.291 150.967 168.724 153.233 165.324 154.9C161.924 156.567 157.524 157.4 152.124 157.4C149.058 157.4 145.858 157.033 142.524 156.3C139.258 155.633 136.324 154.367 133.724 152.5C131.524 150.767 129.824 148.733 128.624 146.4C127.491 144.067 126.724 141.333 126.324 138.2C125.924 135 125.724 131.333 125.724 127.2V95.8C125.724 93.3333 125.524 91.5333 125.124 90.4C124.791 89.2 124.091 88.4 123.024 88C122.024 87.5333 120.491 87.2667 118.424 87.2V85.2C120.224 85.2667 122.624 85.3333 125.624 85.4C128.624 85.4667 131.758 85.5 135.024 85.5C138.291 85.5 141.424 85.4667 144.424 85.4C147.424 85.3333 149.924 85.2667 151.924 85.2V87.2C149.658 87.2667 147.924 87.5333 146.724 88C145.591 88.4 144.824 89.2 144.424 90.4C144.024 91.5333 143.824 93.3333 143.824 95.8V135.1C143.824 138.367 144.058 141.2 144.524 143.6C145.058 146 145.824 147.967 146.824 149.5C147.891 151.033 149.258 152.167 150.924 152.9C152.591 153.567 154.591 153.9 156.924 153.9C161.524 153.9 165.124 152.833 167.724 150.7C170.324 148.5 172.158 145.433 173.224 141.5C174.291 137.567 174.824 133.067 174.824 128V103.2C174.824 99.1333 174.624 96.0333 174.224 93.9C173.824 91.7 172.924 90.1333 171.524 89.2C170.124 88.2 167.924 87.5333 164.924 87.2V85.2C166.191 85.2667 167.858 85.3333 169.924 85.4C172.058 85.4667 174.058 85.5 175.924 85.5C177.458 85.5 178.991 85.4667 180.524 85.4C182.124 85.3333 183.424 85.2667 184.424 85.2ZM251.765 85.2V87.2C249.698 87.2667 248.132 87.5333 247.065 88C245.998 88.4 245.298 89.2 244.965 90.4C244.632 91.5333 244.465 93.3333 244.465 95.8V145.4C244.465 147.8 244.632 149.6 244.965 150.8C245.365 152 246.065 152.8 247.065 153.2C248.132 153.6 249.698 153.867 251.765 154V156C249.898 155.867 247.498 155.8 244.565 155.8C241.698 155.733 238.798 155.7 235.865 155.7C232.465 155.7 229.265 155.733 226.265 155.8C223.265 155.8 220.865 155.867 219.065 156V154C221.132 153.867 222.665 153.6 223.665 153.2C224.732 152.8 225.432 152 225.765 150.8C226.165 149.6 226.365 147.8 226.365 145.4V95.8C226.365 93.3333 226.165 91.5333 225.765 90.4C225.432 89.2 224.732 88.4 223.665 88C222.665 87.5333 221.132 87.2667 219.065 87.2V85.2C220.865 85.2667 223.265 85.3333 226.265 85.4C229.265 85.4667 232.465 85.5 235.865 85.5C238.798 85.5 241.698 85.4667 244.565 85.4C247.498 85.3333 249.898 85.2667 251.765 85.2ZM376.332 85.2V87.2C374.332 87.2667 372.799 87.5333 371.732 88C370.665 88.4 369.932 89.2 369.532 90.4C369.199 91.5333 369.032 93.3333 369.032 95.8V145.4C369.032 147.8 369.232 149.6 369.632 150.8C370.032 152 370.732 152.8 371.732 153.2C372.799 153.6 374.332 153.867 376.332 154V156C374.399 155.867 371.899 155.8 368.832 155.8C365.832 155.733 362.765 155.7 359.632 155.7C356.232 155.7 353.032 155.733 350.032 155.8C347.099 155.8 344.699 155.867 342.832 156V154C345.099 153.867 346.799 153.6 347.932 153.2C349.132 152.8 349.932 152 350.332 150.8C350.732 149.6 350.932 147.8 350.932 145.4V91.6L351.832 91.5L326.832 156H325.232L297.632 91.7V138C297.632 142.067 297.832 145.2 298.232 147.4C298.632 149.533 299.532 151.067 300.932 152C302.332 152.933 304.532 153.6 307.532 154V156C306.265 155.867 304.565 155.8 302.432 155.8C300.365 155.733 298.399 155.7 296.532 155.7C295.065 155.7 293.532 155.733 291.932 155.8C290.399 155.8 289.099 155.867 288.032 156V154C290.165 153.6 291.732 152.967 292.732 152.1C293.799 151.167 294.499 149.733 294.832 147.8C295.165 145.8 295.332 143.067 295.332 139.6V95.8C295.332 93.3333 295.165 91.5333 294.832 90.4C294.499 89.2 293.799 88.4 292.732 88C291.665 87.5333 290.099 87.2667 288.032 87.2V85.2C289.099 85.2667 290.399 85.3333 291.932 85.4C293.532 85.4667 295.065 85.5 296.532 85.5C299.932 85.5 303.199 85.4667 306.332 85.4C309.465 85.3333 312.299 85.2667 314.832 85.2L335.232 132.8L332.432 135.6L351.732 85.5C352.999 85.5 354.299 85.5 355.632 85.5C357.032 85.5 358.365 85.5 359.632 85.5C362.765 85.5 365.832 85.4667 368.832 85.4C371.899 85.3333 374.399 85.2667 376.332 85.2ZM467.261 85.2C466.994 88.3333 466.794 91.3667 466.661 94.3C466.594 97.2333 466.561 99.4667 466.561 101C466.561 102.333 466.594 103.633 466.661 104.9C466.728 106.167 466.794 107.2 466.861 108H464.561C463.828 102.8 462.628 98.7 460.961 95.7C459.361 92.7 457.361 90.6 454.961 89.4C452.628 88.1333 450.028 87.5 447.161 87.5H444.461C442.661 87.5 441.261 87.6667 440.261 88C439.328 88.2667 438.694 88.8667 438.361 89.8C438.094 90.7333 437.961 92.2 437.961 94.2V147C437.961 148.933 438.094 150.4 438.361 151.4C438.694 152.333 439.328 152.967 440.261 153.3C441.261 153.567 442.661 153.7 444.461 153.7H448.561C451.161 153.7 453.628 153.033 455.961 151.7C458.361 150.3 460.494 147.967 462.361 144.7C464.228 141.367 465.628 136.867 466.561 131.2H468.861C468.661 133.467 468.561 136.4 468.561 140C468.561 141.6 468.594 143.867 468.661 146.8C468.728 149.733 468.928 152.8 469.261 156C465.861 155.867 462.028 155.8 457.761 155.8C453.494 155.733 449.694 155.7 446.361 155.7C444.628 155.7 442.428 155.7 439.761 155.7C437.094 155.7 434.194 155.733 431.061 155.8C427.928 155.8 424.761 155.833 421.561 155.9C418.361 155.9 415.361 155.933 412.561 156V154C414.628 153.867 416.161 153.6 417.161 153.2C418.228 152.8 418.928 152 419.261 150.8C419.661 149.6 419.861 147.8 419.861 145.4V95.8C419.861 93.3333 419.661 91.5333 419.261 90.4C418.928 89.2 418.228 88.4 417.161 88C416.161 87.5333 414.628 87.2667 412.561 87.2V85.2C415.428 85.2667 418.428 85.3333 421.561 85.4C424.761 85.4 427.894 85.4333 430.961 85.5C434.094 85.5 436.994 85.5 439.661 85.5C442.394 85.5 444.628 85.5 446.361 85.5C449.428 85.5 452.894 85.5 456.761 85.5C460.694 85.4333 464.194 85.3333 467.261 85.2ZM452.161 119.4C452.161 119.4 452.161 119.733 452.161 120.4C452.161 121.067 452.161 121.4 452.161 121.4H434.961C434.961 121.4 434.961 121.067 434.961 120.4C434.961 119.733 434.961 119.4 434.961 119.4H452.161ZM455.061 106.2C454.794 110 454.661 112.9 454.661 114.9C454.728 116.9 454.761 118.733 454.761 120.4C454.761 122.067 454.794 123.9 454.861 125.9C454.928 127.9 455.094 130.8 455.361 134.6H453.061C452.728 132.2 452.028 130 450.961 128C449.894 126 448.461 124.4 446.661 123.2C444.861 122 442.661 121.4 440.061 121.4V119.4C441.994 119.4 443.694 119 445.161 118.2C446.628 117.333 447.861 116.233 448.861 114.9C449.928 113.567 450.794 112.133 451.461 110.6C452.128 109.067 452.561 107.6 452.761 106.2H455.061ZM540.221 85.2V87.2C537.954 87.2667 536.221 87.5333 535.021 88C533.888 88.4 533.121 89.2 532.721 90.4C532.321 91.5333 532.121 93.3333 532.121 95.8V147C532.121 148.933 532.254 150.4 532.521 151.4C532.854 152.333 533.421 152.967 534.221 153.3C535.021 153.567 536.221 153.7 537.821 153.7H541.921C543.921 153.7 545.921 153.1 547.921 151.9C549.921 150.7 551.788 149.033 553.521 146.9C555.254 144.7 556.754 142.2 558.021 139.4C559.288 136.533 560.188 133.467 560.721 130.2H563.021C562.821 132.533 562.721 135.533 562.721 139.2C562.721 140.867 562.754 143.267 562.821 146.4C562.888 149.467 563.088 152.667 563.421 156C560.021 155.867 556.188 155.8 551.921 155.8C547.654 155.733 543.854 155.7 540.521 155.7C538.788 155.7 536.588 155.7 533.921 155.7C531.254 155.7 528.354 155.733 525.221 155.8C522.088 155.8 518.921 155.833 515.721 155.9C512.521 155.9 509.521 155.933 506.721 156V154C508.788 153.867 510.321 153.6 511.321 153.2C512.388 152.8 513.088 152 513.421 150.8C513.821 149.6 514.021 147.8 514.021 145.4V95.8C514.021 93.3333 513.821 91.5333 513.421 90.4C513.088 89.2 512.388 88.4 511.321 88C510.321 87.5333 508.788 87.2667 506.721 87.2V85.2C508.521 85.2667 510.921 85.3333 513.921 85.4C516.921 85.4667 520.121 85.5 523.521 85.5C526.654 85.5 529.721 85.4667 532.721 85.4C535.721 85.3333 538.221 85.2667 540.221 85.2Z" fill="#A1563C"/>
</g>
<g clip-path="url(#clip0_30_4)">
<path d="M475.237 194C476.966 194 478.362 195.396 478.362 197.125V198.082C478.362 203.414 475.638 208.297 471.282 211.129L471.302 211.158L476.849 219H485.393C486.868 219 488.255 219.693 489.143 220.875L493.362 226.5C494.397 227.877 494.114 229.84 492.737 230.875C491.36 231.91 489.397 231.627 488.362 230.25L484.612 225.25H475.237H475.1L484.114 239.176C485.052 240.621 484.641 242.555 483.186 243.502C481.731 244.449 479.807 244.029 478.86 242.574L463.177 218.336C462.893 219.234 462.737 220.191 462.737 221.168V228.375C462.737 230.104 461.341 231.5 459.612 231.5C457.884 231.5 456.487 230.104 456.487 228.375V221.168C456.487 214.811 460.354 209.088 466.263 206.725C469.798 205.309 472.112 201.891 472.112 198.082V197.125C472.112 195.396 473.509 194 475.237 194ZM458.05 197.125C459.293 197.125 460.485 197.619 461.364 198.498C462.243 199.377 462.737 200.569 462.737 201.813C462.737 203.056 462.243 204.248 461.364 205.127C460.485 206.006 459.293 206.5 458.05 206.5C456.806 206.5 455.614 206.006 454.735 205.127C453.856 204.248 453.362 203.056 453.362 201.813C453.362 200.569 453.856 199.377 454.735 198.498C455.614 197.619 456.806 197.125 458.05 197.125Z" fill="#2E5263"/>
</g>
<defs>
<clipPath id="clip0_30_4">
<rect width="50" height="50" fill="white" transform="translate(447.112 194)"/>
</clipPath>
</defs>
</svg>
